<svg width="33" height="33" viewBox="0 0 33 33" fill="none" xmlns="http://www.w3.org/2000/svg">
<rect x="0.509521" y="0.487549" width="31.6252" height="31.6252" rx="15.8126" fill="white"/>
<path d="M11.5783 22.1508V20.2357L15.8829 16.5285C16.4217 16.0483 16.8492 15.6559 17.1654 15.3514C17.4934 15.0351 17.7277 14.7365 17.8682 14.4553C18.0088 14.1742 18.0791 13.8697 18.0791 13.5417C18.0791 13.0381 17.9385 12.634 17.6574 12.3294C17.388 12.0132 16.9722 11.855 16.41 11.855C15.7657 11.855 15.2679 12.0307 14.9165 12.3821C14.5652 12.7218 14.3895 13.3075 14.3895 14.1391H11.754C11.754 13.2138 11.9297 12.4173 12.2811 11.7496C12.6325 11.0703 13.1537 10.549 13.8448 10.1859C14.5476 9.82284 15.4026 9.64129 16.41 9.64129C17.347 9.64129 18.1376 9.81112 18.7818 10.1508C19.4261 10.4788 19.9063 10.9356 20.2225 11.5212C20.5505 12.1069 20.7145 12.7804 20.7145 13.5417C20.7145 14.104 20.5798 14.631 20.3104 15.123C20.0527 15.6149 19.7072 16.0835 19.2738 16.5285C18.8404 16.9736 18.3543 17.4187 17.8155 17.8638L15.2855 19.9722H20.8902V22.1508H11.5783Z" fill="#313131"/>
</svg>
