<svg width="32" height="33" viewBox="0 0 32 33" fill="none" xmlns="http://www.w3.org/2000/svg">
<rect x="0.199127" y="0.487549" width="31.6252" height="31.6252" rx="15.8126" fill="white"/>
<path d="M15.9239 22.3616C14.9283 22.3616 14.0908 22.2035 13.4114 21.8873C12.7321 21.5593 12.2167 21.0966 11.8653 20.4993C11.5256 19.9019 11.3558 19.1933 11.3558 18.3734H13.9912C13.9912 18.9707 14.1435 19.4158 14.448 19.7086C14.7526 20.0015 15.2445 20.1479 15.9239 20.1479C16.5681 20.1479 17.0483 20.0073 17.3646 19.7262C17.6925 19.4334 17.8565 19.0234 17.8565 18.4963C17.8565 17.9458 17.6925 17.53 17.3646 17.2489C17.0483 16.9678 16.5681 16.8272 15.9239 16.8272H14.7643V14.8243H15.9239C16.4861 14.8243 16.9195 14.7072 17.224 14.4729C17.5285 14.2269 17.6808 13.8521 17.6808 13.3485C17.6808 12.9151 17.5344 12.5578 17.2416 12.2767C16.9488 11.9956 16.5095 11.855 15.9239 11.855C15.3265 11.855 14.8814 11.9897 14.5886 12.2591C14.3075 12.5285 14.1669 12.9268 14.1669 13.4539H11.5315C11.5315 12.6457 11.6896 11.9605 12.0059 11.3982C12.3338 10.8243 12.8258 10.3909 13.4817 10.0981C14.1376 9.79356 14.9517 9.64129 15.9239 9.64129C16.896 9.64129 17.7101 9.7877 18.366 10.0805C19.022 10.3733 19.508 10.7716 19.8243 11.2753C20.1523 11.7789 20.3162 12.347 20.3162 12.9795C20.3162 13.6706 20.123 14.2562 19.7365 14.7365C19.3616 15.205 18.858 15.5388 18.2255 15.7379C18.9517 15.937 19.508 16.2884 19.8946 16.7921C20.2928 17.284 20.4919 17.9283 20.4919 18.7247C20.4919 19.4275 20.3045 20.0542 19.9297 20.6047C19.5666 21.1435 19.0454 21.571 18.366 21.8873C17.6867 22.2035 16.8726 22.3616 15.9239 22.3616Z" fill="#313131"/>
</svg>
