<svg width="33" height="33" viewBox="0 0 33 33" fill="none" xmlns="http://www.w3.org/2000/svg">
<rect x="0.509521" y="0.446564" width="31.6252" height="31.6252" rx="15.8126" fill="white"/>
<path d="M16.3221 22.3206C15.5491 22.3206 14.8873 22.2211 14.3368 22.022C13.7862 21.8228 13.3353 21.5534 12.9839 21.2138C12.6325 20.8741 12.369 20.4876 12.1933 20.0542C12.0293 19.6208 11.9414 19.164 11.9297 18.6837H14.5652C14.6003 19.1054 14.7584 19.451 15.0395 19.7204C15.3324 19.978 15.7599 20.1069 16.3221 20.1069C16.9663 20.1069 17.4466 19.9253 17.7628 19.5622C18.0908 19.1991 18.2548 18.6545 18.2548 17.9283C18.2548 17.4129 18.1669 17.0029 17.9912 16.6984C17.8155 16.3821 17.5813 16.1596 17.2884 16.0307C16.9956 15.8902 16.6735 15.8199 16.3221 15.8199C15.9122 15.8199 15.5725 15.896 15.3031 16.0483C15.0337 16.1889 14.817 16.388 14.653 16.6457H12.1933V9.81113H20.205V11.9898H14.8287V14.2387C15.0747 14.0161 15.3734 13.858 15.7247 13.7643C16.0761 13.6706 16.4802 13.6237 16.937 13.6237C17.7335 13.6237 18.4246 13.7818 19.0103 14.0981C19.5959 14.4143 20.0527 14.8946 20.3807 15.5388C20.7204 16.1713 20.8902 16.9678 20.8902 17.9283C20.8902 18.8067 20.6969 19.5798 20.3104 20.2474C19.9356 20.9034 19.4085 21.4129 18.7291 21.776C18.0498 22.1391 17.2474 22.3206 16.3221 22.3206Z" fill="#313131"/>
</svg>
