<svg width="33" height="33" viewBox="0 0 33 33" fill="none" xmlns="http://www.w3.org/2000/svg">
<rect x="0.819916" y="0.405563" width="31.6252" height="31.6252" rx="15.8126" fill="white"/>
<path d="M17.0718 22.2796C15.5374 22.2796 14.3485 21.8228 13.5051 20.9092C12.6618 19.9839 12.2401 18.4963 12.2401 16.4465V16.0952C12.2401 14.5256 12.451 13.2665 12.8726 12.3177C13.306 11.3572 13.8975 10.6603 14.6472 10.2269C15.4085 9.78183 16.2753 9.55928 17.2475 9.55928C18.0088 9.55928 18.6706 9.6647 19.2328 9.87553C19.8068 10.0864 20.2694 10.4202 20.6208 10.877C20.9722 11.3221 21.1948 11.9136 21.2885 12.6515H18.8287C18.7116 12.3587 18.5125 12.142 18.2314 12.0014C17.962 11.8492 17.6047 11.773 17.1596 11.773C16.6911 11.773 16.2811 11.8726 15.9297 12.0717C15.5901 12.2591 15.309 12.6047 15.0864 13.1083C14.8756 13.612 14.7467 14.3499 14.6999 15.3221C15.0044 14.8419 15.4319 14.508 15.9825 14.3206C16.5447 14.1332 17.1128 14.0395 17.6867 14.0395C18.5183 14.0395 19.2153 14.1918 19.7775 14.4963C20.3514 14.8009 20.7907 15.2401 21.0952 15.814C21.3997 16.388 21.552 17.0849 21.552 17.9048V18.0981C21.552 18.9297 21.3587 19.6618 20.9722 20.2943C20.5974 20.9151 20.0703 21.4012 19.3909 21.7525C18.7116 22.1039 17.9385 22.2796 17.0718 22.2796ZM16.8961 20.0659C17.5286 20.0659 18.0205 19.8902 18.3719 19.5388C18.735 19.1757 18.9166 18.713 18.9166 18.1508V17.9751C18.9166 17.4129 18.735 16.9561 18.3719 16.6047C18.0205 16.2533 17.5286 16.0776 16.8961 16.0776C16.2636 16.0776 15.7658 16.2533 15.4027 16.6047C15.0513 16.9561 14.8756 17.4129 14.8756 17.9751V18.1508C14.8756 18.713 15.0513 19.1757 15.4027 19.5388C15.7658 19.8902 16.2636 20.0659 16.8961 20.0659Z" fill="#313131"/>
</svg>
